<svg xmlns="http://www.w3.org/2000/svg" viewBox="0 0 720 380" font-family="-apple-system, BlinkMacSystemFont, Segoe UI, Helvetica, Arial, sans-serif">
<rect width="720" height="380" fill="white"/>
<text x="360.0" y="28" text-anchor="middle" font-size="18" font-weight="600" fill="#1f2933">Accuracy across corpora - small-context runs</text>
<text x="360.0" y="48" text-anchor="middle" font-size="12" fill="#9aa5b1">3-model average - NIAH-93K, MultiHop, Codebase, Synthesis</text>
<text x="22" y="185.0" text-anchor="middle" font-size="12" fill="#9aa5b1" transform="rotate(-90 22 185.0)">accuracy %</text>
<line x1="90" y1="310.0" x2="690" y2="310.0" stroke="#e4e7eb" stroke-width="1"/>
<text x="82" y="314.0" text-anchor="end" font-size="11" fill="#9aa5b1">0</text>
<line x1="90" y1="247.5" x2="690" y2="247.5" stroke="#e4e7eb" stroke-width="1"/>
<text x="82" y="251.5" text-anchor="end" font-size="11" fill="#9aa5b1">25</text>
<line x1="90" y1="185.0" x2="690" y2="185.0" stroke="#e4e7eb" stroke-width="1"/>
<text x="82" y="189.0" text-anchor="end" font-size="11" fill="#9aa5b1">50</text>
<line x1="90" y1="122.5" x2="690" y2="122.5" stroke="#e4e7eb" stroke-width="1"/>
<text x="82" y="126.5" text-anchor="end" font-size="11" fill="#9aa5b1">75</text>
<line x1="90" y1="60.0" x2="690" y2="60.0" stroke="#e4e7eb" stroke-width="1"/>
<text x="82" y="64.0" text-anchor="end" font-size="11" fill="#9aa5b1">100</text>
<line x1="90" y1="310.0" x2="690" y2="310.0" stroke="#9aa5b1" stroke-width="1.5"/>
<rect x="123.75" y="87.5" width="82.5" height="222.5" fill="#4a90e2" rx="3"/>
<text x="165.0" y="81.5" text-anchor="middle" font-size="12" font-weight="600" fill="#1f2933">89%</text>
<text x="165.0" y="332.0" text-anchor="middle" font-size="13" fill="#1f2933">NIAH-93K</text>
<rect x="273.75" y="60.0" width="82.5" height="250.0" fill="#3aa55a" rx="3"/>
<text x="315.0" y="54.0" text-anchor="middle" font-size="12" font-weight="600" fill="#1f2933">100%</text>
<text x="315.0" y="332.0" text-anchor="middle" font-size="13" fill="#1f2933">MultiHop</text>
<rect x="423.75" y="115.0" width="82.5" height="195.0" fill="#4a90e2" rx="3"/>
<text x="465.0" y="109.0" text-anchor="middle" font-size="12" font-weight="600" fill="#1f2933">78%</text>
<text x="465.0" y="332.0" text-anchor="middle" font-size="13" fill="#1f2933">Codebase</text>
<rect x="573.75" y="60.0" width="82.5" height="250.0" fill="#3aa55a" rx="3"/>
<text x="615.0" y="54.0" text-anchor="middle" font-size="12" font-weight="600" fill="#1f2933">100%</text>
<text x="615.0" y="332.0" text-anchor="middle" font-size="13" fill="#1f2933">Synthesis</text>
</svg>