<svg xmlns="http://www.w3.org/2000/svg" viewBox="0 0 720 380" font-family="-apple-system, BlinkMacSystemFont, Segoe UI, Helvetica, Arial, sans-serif">
<rect width="720" height="380" fill="white"/>
<text x="360.0" y="28" text-anchor="middle" font-size="18" font-weight="600" fill="#1f2933">Average latency at ~93K context</text>
<text x="360.0" y="48" text-anchor="middle" font-size="12" fill="#9aa5b1">NIAH, n=3 per model, OpenRouter</text>
<text x="22" y="185.0" text-anchor="middle" font-size="12" fill="#9aa5b1" transform="rotate(-90 22 185.0)">latency (s)</text>
<line x1="90" y1="310.0" x2="690" y2="310.0" stroke="#e4e7eb" stroke-width="1"/>
<text x="82" y="314.0" text-anchor="end" font-size="11" fill="#9aa5b1">0.0</text>
<line x1="90" y1="247.5" x2="690" y2="247.5" stroke="#e4e7eb" stroke-width="1"/>
<text x="82" y="251.5" text-anchor="end" font-size="11" fill="#9aa5b1">3.5</text>
<line x1="90" y1="185.0" x2="690" y2="185.0" stroke="#e4e7eb" stroke-width="1"/>
<text x="82" y="189.0" text-anchor="end" font-size="11" fill="#9aa5b1">7.0</text>
<line x1="90" y1="122.5" x2="690" y2="122.5" stroke="#e4e7eb" stroke-width="1"/>
<text x="82" y="126.5" text-anchor="end" font-size="11" fill="#9aa5b1">10.5</text>
<line x1="90" y1="60.0" x2="690" y2="60.0" stroke="#e4e7eb" stroke-width="1"/>
<text x="82" y="64.0" text-anchor="end" font-size="11" fill="#9aa5b1">14.0</text>
<line x1="90" y1="310.0" x2="690" y2="310.0" stroke="#9aa5b1" stroke-width="1.5"/>
<rect x="135.0" y="186.78571428571428" width="110.00000000000001" height="123.21428571428572" fill="#3aa55a" rx="3"/>
<text x="190.0" y="180.78571428571428" text-anchor="middle" font-size="12" font-weight="600" fill="#1f2933">6.9s</text>
<text x="190.0" y="332.0" text-anchor="middle" font-size="13" fill="#1f2933">v4-flash</text>
<rect x="335.0" y="102.85714285714286" width="110.00000000000001" height="207.14285714285714" fill="#f5a623" rx="3"/>
<text x="390.0" y="96.85714285714286" text-anchor="middle" font-size="12" font-weight="600" fill="#1f2933">11.6s</text>
<text x="390.0" y="332.0" text-anchor="middle" font-size="13" fill="#1f2933">v4-pro</text>
<rect x="535.0" y="177.85714285714286" width="110.00000000000001" height="132.14285714285714" fill="#4a90e2" rx="3"/>
<text x="590.0" y="171.85714285714286" text-anchor="middle" font-size="12" font-weight="600" fill="#1f2933">7.4s</text>
<text x="590.0" y="332.0" text-anchor="middle" font-size="13" fill="#1f2933">llama-4-scout</text>
</svg>